<svg width="150" height="160" viewBox="0 0 150 160" fill="none" xmlns="http://www.w3.org/2000/svg">
<path d="M7.34289 49.1958C6.8324 50.8531 6.39534 52.5349 6.0317 54.2412C5.30591 57.7931 4.9439 61.4097 4.95128 65.0349C4.95128 65.6748 4.95128 66.2937 4.95128 66.923C4.95128 67.0699 4.95128 67.2167 4.95128 67.3636C4.95128 67.972 4.95128 68.5909 5.05618 69.1993C5.05104 69.2656 5.05104 69.3322 5.05618 69.3986C5.05618 69.965 5.15058 70.5209 5.21352 71.0769C5.21352 71.2132 5.21352 71.3496 5.21352 71.486C5.28695 72.0839 5.36037 72.6818 5.45478 73.2797C5.45478 73.3741 5.45478 73.479 5.45478 73.5734C5.53869 74.1083 5.6331 74.6223 5.738 75.1678L5.97925 75.5244C6.09464 76.1118 6.231 76.6993 6.36737 77.2762C6.36737 77.3916 6.36737 77.5069 6.44079 77.6118L6.84988 79.1958C6.8695 79.2776 6.89402 79.3581 6.92331 79.437C7.08065 80.0139 7.25898 80.5909 7.4373 81.1573C7.4373 81.2727 7.51072 81.3881 7.54219 81.493C7.72051 82.0489 7.90932 82.5419 8.10863 83.1398V83.2237C8.31842 83.7902 8.5387 84.3566 8.75898 84.923C8.75898 85.0279 8.84289 85.1328 8.89534 85.2377C9.35688 86.3706 9.86037 87.472 10.3953 88.5629C10.3953 88.6573 10.4793 88.7412 10.5317 88.8356C10.8044 89.3811 11.0876 89.8846 11.3814 90.4615C11.6751 90.986 11.9688 91.5104 12.273 92.0244L12.3988 92.2342C12.7135 92.7587 13.0387 93.2832 13.3744 93.7972L13.4373 93.8916C13.7625 94.4056 14.1086 94.9405 14.4862 95.3916L14.5597 95.507C14.9163 96.0104 15.2835 96.5559 15.6086 97.0174C15.64 97.0533 15.6681 97.0919 15.6925 97.1328C16.4583 98.1818 17.266 99.1153 18.1051 100.07L18.189 100.164C19.0282 101.119 19.9093 102.031 20.8114 102.923L20.8953 102.996C21.8079 103.899 22.7625 104.759 23.738 105.587H23.7904C28.3426 109.423 33.5096 112.462 39.0737 114.577C41.8939 115.645 44.7993 116.473 47.759 117.052H47.8639L49.2485 117.294H49.3639C49.8569 117.378 50.3394 117.451 50.8429 117.514C58.5868 118.556 66.465 117.883 73.9198 115.542C74.4758 115.364 74.9688 115.185 75.5772 114.986H75.6401C76.1856 114.797 76.6891 114.587 77.266 114.378L77.4338 114.315L78.3464 113.948L78.7135 113.79L79.4793 113.455L80.0877 113.182L80.6646 112.92L81.8604 112.332C82.28 112.122 82.6891 111.902 83.0981 111.682L83.8219 111.283H83.8744C86.754 109.662 89.4788 107.78 92.0142 105.661L92.203 105.503L93.1786 104.643L93.5247 104.339L94.3849 103.542L94.8149 103.133L95.5911 102.367L96.0632 101.874C96.3044 101.633 96.5352 101.392 96.766 101.14L97.28 100.584L97.9198 99.8706L98.4548 99.2412L99.0317 98.5489L99.5981 97.8461L100.112 97.1853L100.7 96.3986L101.151 95.7797C101.371 95.4755 101.581 95.1608 101.801 94.8461L102.147 94.3426C102.469 93.8531 102.783 93.3601 103.091 92.8636C102.651 93.3881 102.147 94.0174 101.581 94.7622C94.1121 104.496 81.6506 108.115 70.6995 103.762C67.8046 102.614 65.1318 100.971 62.8009 98.9056C60.007 95.8092 57.5882 92.394 55.5946 88.7307C54.6279 86.9489 53.7629 85.1138 53.0037 83.2342C50.4688 76.9359 49.1689 70.2088 49.1751 63.4195V63.4195C49.1751 62.8111 49.1751 62.2028 49.1751 61.5944C49.1751 61.3846 49.1751 61.1853 49.1751 60.986C49.1751 60.5769 49.1751 60.1783 49.2485 59.7692C49.2485 59.5279 49.2485 59.2972 49.2485 59.0559L49.3429 58.0069C49.3429 57.7552 49.3429 57.5035 49.4268 57.2622C49.5107 57.0209 49.5107 56.5699 49.5632 56.2132C49.6156 55.8566 49.6366 55.6993 49.6681 55.4475C49.6995 55.1958 49.773 54.7762 49.8359 54.451C49.8988 54.1258 49.9198 53.9265 49.9723 53.6748C50.0247 53.423 50.0981 53.0139 50.1611 52.6888L50.3184 51.923C50.3918 51.5979 50.4758 51.2622 50.5597 50.937C50.6436 50.6118 50.6751 50.4545 50.738 50.2028C50.8009 49.951 50.9268 49.4685 51.0317 49.1538C51.1366 48.8391 51.252 48.3776 51.3779 47.9895C51.5037 47.6014 51.5772 47.3076 51.6925 46.9405L51.9863 46.0909C52.0807 45.8286 52.1646 45.5664 52.259 45.3146C52.3534 45.0629 52.4793 44.7167 52.5946 44.423C52.71 44.1293 52.773 43.951 52.8779 43.7097C52.9828 43.4685 53.1191 43.1118 53.245 42.8076L53.5282 42.1468C53.6646 41.8321 53.8114 41.5279 53.9478 41.2237L54.231 40.6153L54.703 39.6608L54.9653 39.1468L55.5002 38.0979L55.8044 37.7622C56.7917 35.9896 57.8773 34.2736 59.0562 32.6223V32.6223C59.3394 32.2237 59.6331 31.8356 59.9268 31.4475L60.0422 31.2902C60.3254 30.9125 60.6191 30.5454 60.9128 30.1888L61.0597 30L61.9618 28.951L62.0981 28.7937C62.4233 28.4265 62.738 28.0594 63.0737 27.7447V27.6818C67.4 22.9563 72.5414 19.0478 78.252 16.1433C83.7155 13.4649 89.6112 11.7779 95.6646 11.1608C99.2587 10.6814 102.888 10.52 106.511 10.6783V10.6783C107.287 10.7412 108.053 10.8251 108.818 10.9195H109.154C109.469 10.9195 109.773 11.0034 110.088 11.0559L110.633 11.1398L112.028 11.3811L112.521 11.4755L114.053 11.8007L114.378 11.8741C115.007 12.0209 115.626 12.1783 116.235 12.3461H116.297C116.885 12.5034 117.462 12.6818 118.039 12.8601L118.563 13.0384L119.822 13.458L120.43 13.6783L121.584 14.1188L122.224 14.3811C122.486 14.486 122.748 14.5804 123 14.6958C127.091 16.4475 131.654 18.7342 134.948 21.7972C129.063 16.3286 122.421 11.736 115.228 8.16079C98.5795 -0.0916082 79.5384 -2.15151 61.5107 2.3496C44.1943 6.49386 28.7958 16.3897 17.8324 30.4195C14.398 34.4021 11.5703 38.8698 9.44079 43.6783C9.0317 44.6014 8.65408 45.5454 8.29744 46.5C8.07716 47.0874 7.85688 47.6853 7.65758 48.2937C7.56317 48.5979 7.45828 48.9021 7.34289 49.1958ZM62.9373 25.0699L63.0737 24.986L62.9373 25.1748V25.0699ZM49.1646 42.7972V42.8601V42.7972Z" fill="#07B1C2"/>
<path d="M61.0698 29.9475L61.9719 28.8986L61.0698 29.9475Z" fill="#02EAAE"/>
<path d="M62.1084 28.7098C62.4336 28.3427 62.7483 27.9756 63.0839 27.6609C62.7483 27.9756 62.4336 28.3217 62.1084 28.7098Z" fill="#02EAAE"/>
<path d="M109.238 10.8357H108.902L110.172 11.014C109.857 10.9196 109.553 10.8672 109.238 10.8357Z" fill="#02EAAE"/>
<path d="M122.308 14.3182C126.874 16.1855 131.156 18.6817 135.031 21.7343C131.738 18.6714 127.175 16.3847 123.084 14.6329C122.832 14.5175 122.57 14.4231 122.308 14.3182Z" fill="#02EAAE"/>
<path d="M116.434 12.2832C117.021 12.4405 117.598 12.6189 118.175 12.7972C117.545 12.5874 116.969 12.4405 116.434 12.2832Z" fill="#02EAAE"/>
<path d="M118.647 12.9755L119.906 13.395L118.647 12.9755Z" fill="#02EAAE"/>
<path d="M110.717 11.0559L112.112 11.2972L110.717 11.0559Z" fill="#02EAAE"/>
<path d="M120.514 13.6364C120.902 13.7832 121.29 13.9196 121.668 14.0769L120.514 13.6364Z" fill="#02EAAE"/>
<path d="M112.605 11.3916L114.136 11.7168L112.605 11.3916Z" fill="#02EAAE"/>
<path d="M148.511 39.6609C148.283 38.9476 148.017 38.2472 147.713 37.563C146.786 35.5445 145.628 33.6402 144.262 31.8882C141.483 28.2349 138.395 24.8273 135.032 21.7028V21.7028C131.156 18.6502 126.874 16.154 122.308 14.2868L121.678 14.056C121.301 13.8986 120.913 13.7623 120.525 13.6154L119.916 13.3952L118.657 12.9756L118.133 12.7972C117.556 12.6189 116.979 12.4406 116.392 12.2833H116.329C115.72 12.1154 115.101 11.9581 114.472 11.8112L114.147 11.7378L112.615 11.4126L112.122 11.3182L110.727 11.077L110.182 10.9931L108.913 10.8147C108.136 10.7203 107.36 10.6574 106.584 10.6049C102.961 10.4467 99.332 10.6081 95.7378 11.0875C89.6845 11.7045 83.7888 13.3916 78.3253 16.07C74.5358 17.9788 70.9865 20.331 67.7518 23.077L67.6994 23.1294C66.9232 23.7903 66.1784 24.4826 65.4441 25.2273L65.2344 25.4266C64.9511 25.6993 64.6679 25.9826 64.3952 26.2658L64.1434 26.528C63.7973 26.8742 63.4721 27.2203 63.0945 27.577V27.6399C62.7588 27.9966 62.4441 28.3637 62.119 28.6889L61.9826 28.8462L61.0805 29.8952L60.9337 30.084C60.6399 30.4406 60.3462 30.8077 60.063 31.1854L59.9476 31.3427C59.6539 31.7308 59.3602 32.1189 59.077 32.5175C57.8914 34.2049 56.7989 35.9558 55.8043 37.7623L55.605 38.1294L55.07 39.1784L54.8078 39.6924L54.3358 40.6469L54.0525 41.2553C53.9162 41.5595 53.7693 41.8637 53.633 42.1784L53.3497 42.8392C53.2239 43.1434 53.098 43.4371 52.9826 43.7413C52.8672 44.0455 52.7938 44.2133 52.6994 44.4546C52.605 44.6959 52.4686 45.042 52.3637 45.3462C52.2588 45.6504 52.1854 45.8602 52.091 46.1224L51.7973 46.9721C51.6819 47.3182 51.5875 47.6539 51.4826 48.021C51.3777 48.3882 51.2518 48.7972 51.1365 49.1854C51.0211 49.5735 50.9372 49.9091 50.8427 50.2343C50.7483 50.5595 50.7169 50.7273 50.6644 50.9686C50.612 51.2098 50.4966 51.6294 50.4232 51.9546L50.2658 52.7203C50.2029 53.0455 50.1295 53.3812 50.077 53.7063C50.0246 54.0315 49.9826 54.2203 49.9406 54.4826C49.8987 54.7448 49.8253 55.1434 49.7728 55.4791C49.7204 55.8147 49.6994 55.9931 49.6679 56.2448C49.6364 56.4966 49.5735 56.9371 49.5316 57.2938C49.4896 57.6504 49.5316 57.7868 49.4476 58.0385L49.3532 59.0875C49.3532 59.3287 49.3532 59.57 49.3532 59.8007C49.3532 60.2098 49.3532 60.6084 49.2798 61.0175C49.2798 61.2168 49.2798 61.4161 49.2798 61.6259C49.2798 62.2343 49.2798 62.8427 49.2798 63.4511C49.2737 70.2404 50.5735 76.9675 53.1085 83.2658C53.8345 85.1324 54.6645 86.9569 55.5945 88.7308C54.2221 85.3775 53.5923 81.7668 53.7483 78.1469C54.0084 72.6381 55.9609 67.3434 59.3397 62.9847C62.7186 58.626 67.3593 55.4153 72.6295 53.7903C83.9896 50.4441 95.4546 54.5455 102.399 64.4266C105.042 68.2028 106.07 68.4651 110.046 66.1889C110.371 65.9896 110.706 65.8007 111.095 65.6119C122.647 58.9616 134.185 52.3182 145.71 45.6819C148.007 44.2868 149.371 42.3357 148.511 39.6609Z" fill="#02EAAE"/>
<path d="M114.461 11.7902C115.091 11.937 115.71 12.0944 116.318 12.2622C115.696 12.0944 115.077 11.937 114.461 11.7902Z" fill="#02EAAE"/>
<path d="M59.0664 32.57C59.3496 32.1714 59.6433 31.7833 59.937 31.3951C59.6433 31.7833 59.3496 32.1714 59.0664 32.57Z" fill="#02EAAE"/>
<path d="M52.9824 43.6573C53.0978 43.3532 53.2237 43.0594 53.3496 42.7552C53.2237 43.0594 53.0978 43.3532 52.9824 43.6573Z" fill="#02EAAE"/>
<path d="M49.2065 61.5944C49.2065 61.3846 49.2065 61.1853 49.2065 60.986C49.217 61.1853 49.2065 61.3846 49.2065 61.5944Z" fill="#02EAAE"/>
<path d="M49.1646 63.4196C49.1584 70.2089 50.4583 76.936 52.9932 83.2342C50.4583 76.936 49.1584 70.2089 49.1646 63.4196V63.4196Z" fill="#02EAAE"/>
<path d="M50.6646 50.9056C50.717 50.6644 50.7799 50.4231 50.8429 50.1714C50.7799 50.4231 50.717 50.6644 50.6646 50.9056Z" fill="#02EAAE"/>
<path d="M55.0698 39.0944L55.6048 38.0454L55.0698 39.0944Z" fill="#02EAAE"/>
<path d="M53.6328 42.0945C53.7692 41.7798 53.916 41.4756 54.0524 41.1714C53.916 41.4756 53.7692 41.7798 53.6328 42.0945Z" fill="#02EAAE"/>
<path d="M54.3359 40.5629L54.808 39.6084L54.3359 40.5629Z" fill="#02EAAE"/>
<path d="M55.8042 37.7622C56.7953 35.9919 57.8808 34.2761 59.0559 32.6223C57.877 34.2736 56.7914 35.9896 55.8042 37.7622V37.7622Z" fill="#02EAAE"/>
<path d="M60.0527 31.2378C60.336 30.8601 60.6297 30.493 60.9234 30.1364C60.6297 30.493 60.336 30.8601 60.0527 31.2378Z" fill="#02EAAE"/>
<path d="M50.2656 52.6573L50.423 51.8916L50.2656 52.6573Z" fill="#02EAAE"/>
<path d="M49.9404 54.4195C49.9404 54.1573 50.0243 53.8951 50.0768 53.6433C50.0243 53.8951 49.9824 54.1573 49.9404 54.4195Z" fill="#02EAAE"/>
<path d="M51.1362 49.0805C51.2516 48.6924 51.3565 48.3042 51.4824 47.9161C51.3985 48.3042 51.2516 48.6924 51.1362 49.0805Z" fill="#02EAAE"/>
<path d="M49.668 56.1819C49.668 55.9301 49.7414 55.6679 49.7729 55.4161C49.7414 55.6679 49.6994 55.9301 49.668 56.1819Z" fill="#02EAAE"/>
<path d="M51.7974 46.8881L52.0911 46.0385L51.7974 46.8881Z" fill="#02EAAE"/>
<path d="M49.4478 57.9651C49.4478 57.7133 49.4478 57.4616 49.5317 57.2203C49.5002 57.4616 49.4792 57.6924 49.4478 57.9651Z" fill="#02EAAE"/>
<path d="M52.3638 45.2622C52.4687 44.958 52.5841 44.6643 52.6994 44.3706C52.5841 44.6643 52.4477 44.958 52.3638 45.2622Z" fill="#02EAAE"/>
<path d="M5.97895 75.5245L5.91602 75.1888L5.97895 75.5245Z" fill="#0F5BE3"/>
<path d="M10.5631 88.8462C10.5107 88.7518 10.4687 88.6679 10.4268 88.5735C10.4897 88.6679 10.4897 88.7518 10.5631 88.8462Z" fill="#0F5BE3"/>
<path d="M96.1156 101.948L95.6436 102.441L96.1156 101.948Z" fill="#0F5BE3"/>
<path d="M8.92689 85.2483C8.92689 85.1434 8.83249 85.0385 8.79053 84.9336C8.83249 85.0385 8.87444 85.1434 8.92689 85.2483Z" fill="#0F5BE3"/>
<path d="M97.3323 100.699L96.8184 101.255L97.3323 100.699Z" fill="#0F5BE3"/>
<path d="M93.5771 104.413L93.231 104.717L93.5771 104.413Z" fill="#0F5BE3"/>
<path d="M92.308 105.577L92.1191 105.734L92.308 105.577Z" fill="#0F5BE3"/>
<path d="M5.63314 73.6049C5.63314 73.5105 5.63314 73.4056 5.63314 73.3112C5.60167 73.4265 5.61216 73.5105 5.63314 73.6049Z" fill="#0F5BE3"/>
<path d="M94.8671 103.206L94.437 103.615L94.8671 103.206Z" fill="#0F5BE3"/>
<path d="M101.853 94.9196C101.633 95.2342 101.423 95.5489 101.203 95.8531C101.423 95.5489 101.633 95.2342 101.853 94.9196Z" fill="#0F5BE3"/>
<path d="M100.752 96.5035L100.165 97.2903L100.752 96.5035Z" fill="#0F5BE3"/>
<path d="M6.92304 79.4476C6.89374 79.3687 6.86922 79.2881 6.84961 79.2063C6.86922 79.2881 6.89374 79.3687 6.92304 79.4476V79.4476Z" fill="#0F5BE3"/>
<path d="M7.54191 81.5035C7.54191 81.3986 7.46848 81.2832 7.43701 81.1678C7.46848 81.2832 7.51044 81.3986 7.54191 81.5035Z" fill="#0F5BE3"/>
<path d="M103.143 92.937C102.843 93.4265 102.528 93.9195 102.199 94.416C102.521 93.9265 102.836 93.4335 103.143 92.937Z" fill="#0F5BE3"/>
<path d="M6.44061 77.6224C6.44061 77.5175 6.44061 77.4021 6.36719 77.2867C6.38817 77.4021 6.41963 77.5175 6.44061 77.6224Z" fill="#0F5BE3"/>
<path d="M98.5071 99.3147L97.9722 99.9441L98.5071 99.3147Z" fill="#0F5BE3"/>
<path d="M8.29709 46.5C8.07681 47.0874 7.85653 47.6853 7.65723 48.2937C7.85653 47.6853 8.07681 47.0874 8.29709 46.5Z" fill="#0F5BE3"/>
<path d="M99.6504 97.9196L99.084 98.6224L99.6504 97.9196Z" fill="#0F5BE3"/>
<path d="M78.745 113.906L78.3779 114.063L78.745 113.906Z" fill="#0F5BE3"/>
<path d="M145.353 112.689L133.815 106.038L111.189 93C106.636 90.3672 105.588 90.0315 103.101 92.9371C102.801 93.4266 102.486 93.9196 102.157 94.4161L101.811 94.9196C101.591 95.2343 101.381 95.549 101.161 95.8532L100.71 96.4721L100.122 97.2588L99.6085 97.9196L99.0421 98.6224L98.4651 99.3147L97.9302 99.9441L97.2903 100.657L96.7763 101.213C96.5456 101.465 96.3148 101.706 96.0735 101.948L95.6015 102.441L94.8253 103.206L94.3952 103.615L93.5351 104.413L93.1889 104.717L92.2134 105.577L92.0246 105.734C89.4991 107.852 86.785 109.734 83.9162 111.357V111.357H83.8532L83.1295 111.755C82.7204 111.976 82.3113 112.196 81.8917 112.406L80.6959 112.993L80.119 113.255L79.5106 113.528L78.7449 113.864L78.3777 114.021L77.4651 114.388H77.3393C76.7938 114.598 76.2903 114.808 75.7134 114.997H75.6505C75.0945 115.196 74.6015 115.374 73.9931 115.552C66.5383 117.893 58.6601 118.566 50.9162 117.524C50.4127 117.462 49.9302 117.388 49.4372 117.304H49.3218L47.9372 117.063H47.8323C44.8714 116.489 41.9656 115.661 39.147 114.587V114.587C33.5829 112.473 28.4159 109.433 23.8637 105.598H23.8113C22.8358 104.769 21.8812 103.909 20.9686 103.007L20.8847 102.934C19.9826 102.042 19.1015 101.129 18.2623 100.175L18.1784 100.08C17.3393 99.1259 16.5316 98.1504 15.7658 97.1434C15.7414 97.1025 15.7133 97.0639 15.6819 97.028C15.3043 96.535 14.9372 95.979 14.633 95.5175L14.5071 95.4546C14.1609 94.9616 13.8148 94.4686 13.4581 93.9546L13.3952 93.8602C13.0595 93.3462 12.7344 92.8112 12.4197 92.2972L12.2938 92.0874C11.9896 91.5735 11.6959 91.0385 11.4022 90.5245C11.1085 89.9895 10.8253 89.4755 10.5525 88.8986C10.5001 88.8042 10.4581 88.7203 10.4162 88.6259C9.88122 87.5769 9.36723 86.4336 8.91618 85.3007C8.91618 85.1958 8.82178 85.0909 8.77982 84.986C8.55954 84.4196 8.33926 83.8637 8.12947 83.2867V83.2028C7.93017 82.6574 7.74136 82.1539 7.56304 81.556C7.56304 81.4511 7.48961 81.3357 7.45814 81.2203C7.27982 80.6539 7.1015 80.0769 6.94416 79.5C6.91486 79.4211 6.89035 79.3406 6.87073 79.2588L6.44066 77.6224C6.44066 77.5175 6.44066 77.4021 6.36723 77.2867C6.23087 76.7098 6.09451 76.1224 5.97912 75.535L5.91618 75.1993C5.81129 74.6644 5.71688 74.1504 5.63297 73.6049C5.63297 73.5105 5.63297 73.4056 5.63297 73.3112C5.53856 72.7133 5.46514 72.1154 5.39171 71.5175C5.39171 71.3811 5.39171 71.2448 5.39171 71.1084C5.32877 70.5525 5.27632 69.9965 5.23437 69.4301C5.22923 69.3638 5.22923 69.2971 5.23437 69.2308C5.18192 68.6224 5.15045 68.0035 5.12947 67.3951C5.12947 67.2483 5.12947 67.1014 5.12947 66.9546C5.12947 66.3252 5.12947 65.7063 5.12947 65.0665C5.10959 61.4318 5.46106 57.8045 6.17842 54.2413C6.45115 52.535 6.83926 50.8532 7.34276 49.1958C7.43716 48.9021 7.54206 48.5979 7.63646 48.2937C7.83576 47.6853 8.05604 47.0874 8.27632 46.5C8.63297 45.5455 9.01059 44.6014 9.41968 43.6783C3.81712 54.818 0.946437 67.1311 1.04493 79.5999C1.14343 92.0687 4.20828 104.335 9.98612 115.385C24.0211 142.552 47.14 157.343 77.7169 158.392C107.727 159.441 131.025 146.287 147.535 121.227C150.409 116.843 149.916 115.322 145.353 112.689Z" fill="#0F5BE3"/>
<path d="M14.5808 95.5595L14.5073 95.4546L14.5808 95.5595Z" fill="#0F5BE3"/>
<path d="M15.7343 97.1853C15.7098 97.1444 15.6818 97.1058 15.6504 97.0699C15.6818 97.1058 15.7098 97.1444 15.7343 97.1853V97.1853Z" fill="#0F5BE3"/>
<path d="M18.2621 100.217L18.1782 100.122L18.2621 100.217Z" fill="#0F5BE3"/>
<path d="M6.05273 54.2412C6.40938 52.535 6.83945 50.8531 7.34294 49.1958C6.84644 50.8531 6.41637 52.535 6.05273 54.2412Z" fill="#0F5BE3"/>
<path d="M20.9789 103.049L20.895 102.976L20.9789 103.049Z" fill="#0F5BE3"/>
<path d="M81.8916 112.448L80.6958 113.035L81.8916 112.448Z" fill="#0F5BE3"/>
<path d="M5.3392 71.5175C5.3392 71.3811 5.3392 71.2448 5.3392 71.1084C5.30773 71.2448 5.31822 71.3811 5.3392 71.5175Z" fill="#0F5BE3"/>
<path d="M12.4511 92.3077L12.3252 92.0979L12.4511 92.3077Z" fill="#0F5BE3"/>
<path d="M80.1191 113.287L79.5107 113.559L80.1191 113.287Z" fill="#0F5BE3"/>
<path d="M83.1504 111.787C82.7413 112.007 82.3322 112.227 81.9126 112.437C82.3322 112.238 82.7413 112.007 83.1504 111.787Z" fill="#0F5BE3"/>
<path d="M5.12934 69.43C5.1242 69.3637 5.1242 69.297 5.12934 69.2307C5.1242 69.297 5.1242 69.3637 5.12934 69.43V69.43Z" fill="#0F5BE3"/>
<path d="M5.00381 67.3951C5.00381 67.2483 5.00381 67.1014 5.00381 66.9546C4.98283 67.1329 4.99332 67.2483 5.00381 67.3951Z" fill="#0F5BE3"/>
<path d="M77.4232 114.451L77.2554 114.514L77.4232 114.451Z" fill="#0F5BE3"/>
<path d="M13.4897 93.944L13.4268 93.8496L13.4897 93.944Z" fill="#0F5BE3"/>
</svg>
